<svg xmlns="http://www.w3.org/2000/svg" viewBox="0 0 318.18 101.77"><title>Asset 4</title><path d="M50.56,91.84a.71.71,0,0,0,.15.15l.13.07h0a17.67,17.67,0,0,0,20.62,0l.06,0,.09-.06a.62.62,0,0,0,.14-.14,17.7,17.7,0,0,0,6.34-19.66v0l0-.07,0-.1a17.77,17.77,0,0,0-33.75,0l0,0-.05.14v0a17.74,17.74,0,0,0,6.34,19.65ZM60,80.69a3.23,3.23,0,0,0,1.22.24,3.18,3.18,0,0,0,1.21-.24l7.56,10.4a16,16,0,0,1-17.54,0Zm4.55-3.1v-.2l12.22-4a16,16,0,0,1-5.43,16.67L63.74,79.7A3.29,3.29,0,0,0,64.5,77.59ZM64,75.8a3.3,3.3,0,0,0-2-1.43V61.51A16.21,16.21,0,0,1,76.19,71.82Zm-2.8,3.45a1.66,1.66,0,1,1,1.65-1.66A1.66,1.66,0,0,1,61.17,79.25Zm-.84-17.74V74.37a3.35,3.35,0,0,0-2,1.43l-12.22-4A16.21,16.21,0,0,1,60.33,61.51ZM57.84,77.39a1.34,1.34,0,0,0,0,.2,3.29,3.29,0,0,0,.76,2.11L51,90.09a16,16,0,0,1-5.43-16.67Z" fill="#95c93d"/><path d="M249.42,91.84a1.14,1.14,0,0,0,.16.15l.12.07h0a17.67,17.67,0,0,0,20.62,0l.07,0,.08-.06a1,1,0,0,0,.15-.14,17.87,17.87,0,0,0,7.18-14.25,17.52,17.52,0,0,0-.85-5.41v0l0-.07,0-.09a17.78,17.78,0,0,0-33.76,0l0,0,0,.06,0,.1a17.46,17.46,0,0,0-.85,5.4A17.87,17.87,0,0,0,249.42,91.84Zm9.4-11.15a3.17,3.17,0,0,0,2.42,0l7.56,10.4a16,16,0,0,1-17.54,0Zm4.55-3.1c0-.07,0-.13,0-.2l12.23-4a16,16,0,0,1-5.44,16.67L262.6,79.7A3.24,3.24,0,0,0,263.37,77.59Zm-.54-1.79a3.3,3.3,0,0,0-2-1.43V61.51a16.22,16.22,0,0,1,14.19,10.31ZM260,79.25a1.66,1.66,0,1,1,1.66-1.66A1.67,1.67,0,0,1,260,79.25Zm-.84-17.74V74.37a3.3,3.3,0,0,0-2,1.43l-12.23-4A16.22,16.22,0,0,1,259.19,61.51ZM256.7,77.39c0,.07,0,.13,0,.2a3.24,3.24,0,0,0,.77,2.11l-7.55,10.39a16,16,0,0,1-5.44-16.67Z" fill="#95c93d"/><path d="M11.31,56.57a1.32,1.32,0,0,0,.44-.08,35,35,0,0,1,11-1.71l1.68,0h.16a3.38,3.38,0,0,0,1.14-.2,106.26,106.26,0,0,0,14-6.12L43,46.65c2.16-1.2,2.24-1.25,2.2-1.86a.93.93,0,0,0-.65-.8,28.72,28.72,0,0,0-9.12-1.49,24.83,24.83,0,0,0-6.25.78c-5.67,1.5-9.87,2.41-11.42,2.73A3.22,3.22,0,0,0,16,47c-1.36,1.47-4.67,5.17-5.94,7.55a1.37,1.37,0,0,0,1.21,2ZM42.39,45.08l-.22.13L38.91,47a104.79,104.79,0,0,1-13.72,6,1.63,1.63,0,0,1-.63.1h0c-.6,0-1.19,0-1.76,0A37.34,37.34,0,0,0,12,54.65a55,55,0,0,1,5.29-6.51,1.6,1.6,0,0,1,.85-.49c1.55-.32,5.78-1.23,11.51-2.74a22.7,22.7,0,0,1,5.8-.72A28.3,28.3,0,0,1,42.39,45.08Z" fill="#95c93d"/><path d="M4.08,84.81H5.16c4.45,0,15-.48,16.62-4.91a9,9,0,0,0,1.42-3,1.56,1.56,0,0,0-1.51-2l-.22,0C11,76.51,9.27,77.6,8.92,78.37c-1.36,2.79-1.06,3.46-1,3.68a1,1,0,0,0,.65.56,15.56,15.56,0,0,0,1.55.31C8,83.11,6,83.14,5,83.14H4.1a.84.84,0,0,0-.84.81A.85.85,0,0,0,4.08,84.81Zm5.53-3.7a14.43,14.43,0,0,1,.79-2c.38-.38,3.75-1.38,11.13-2.45a6.49,6.49,0,0,1-3.12,4,9.73,9.73,0,0,1-4.52.89A22.72,22.72,0,0,1,9.61,81.11Z" fill="#95c93d"/><path d="M314.12,70.89a.92.92,0,0,0-.43-.11,1.17,1.17,0,0,0-.26,0,2.06,2.06,0,0,0,.18-.91,3.8,3.8,0,0,0-1.07-2.46c-.26-.22-.63-.4-2.8-.4-1.14,0-2.69,0-4.6.15a1.84,1.84,0,0,0-1.33.69,1.82,1.82,0,0,0-.35,1.46c.25,1.31,1.28,3.34,2.39,3.93a3.58,3.58,0,0,1-.93-.41,38.27,38.27,0,0,1-2.44-5.1l0,0c.18-.2,1-.84,4.08-.84h.27c5.46.06,6.7.21,6.71.21h.11a.83.83,0,0,0,.83-.73.78.78,0,0,0-.16-.62.8.8,0,0,0-.55-.32s-1.12-.16-6.92-.23h-.27c-2.83,0-4.6.48-5.41,1.47a1.67,1.67,0,0,0-.4,1.44l0,.11c1,2.44,2.38,5.45,3,5.94a6,6,0,0,0,3.6,1,9.32,9.32,0,0,0,2.67-.41c2.17-.65,3.61-1.57,4.29-2.73a.89.89,0,0,0,.09-.64A.87.87,0,0,0,314.12,70.89Zm-2.61-2.08a2.31,2.31,0,0,1,.42,1.13.38.38,0,0,1,0,.2,18.89,18.89,0,0,1-5.3,1.66,5.64,5.64,0,0,1-1.5-2.76.14.14,0,0,1,0-.12.09.09,0,0,1,.08,0c1.88-.1,3.41-.15,4.56-.15A11.16,11.16,0,0,1,311.51,68.81Zm1,2.9a7.43,7.43,0,0,1-2.9,1.45,7.31,7.31,0,0,1-2.17.34,6.06,6.06,0,0,1-.76,0A19.55,19.55,0,0,0,312.54,71.71Z" fill="#95c93d"/><path d="M152.43,43.83h0l8.09-.3a.84.84,0,1,0-.06-1.68l-8.08.3a.84.84,0,0,0-.81.87A.85.85,0,0,0,152.43,43.83Z" fill="#95c93d"/><path d="M211,41.37h0l8.1-.3a.84.84,0,0,0-.07-1.68l-8.08.3a.84.84,0,0,0,0,1.68Z" fill="#95c93d"/><path d="M119.16,100.09H70a24.18,24.18,0,1,0-17.73,0H37.2a.84.84,0,1,0,0,1.68h82a.84.84,0,0,0,0-1.68Zm-58-45a22.5,22.5,0,1,1-22.5,22.5A22.53,22.53,0,0,1,61.17,55.09Z" fill="#95c93d"/><path d="M33.56,100.09H15.23a.84.84,0,1,0,0,1.68H33.56a.84.84,0,0,0,0-1.68Z" fill="#95c93d"/><path d="M220,100.93a.84.84,0,0,0,.84.84h76a.84.84,0,0,0,0-1.68H268.89a24.18,24.18,0,1,0-17.72,0H220.79A.84.84,0,0,0,220,100.93ZM260,55.09a22.5,22.5,0,1,1-22.5,22.5A22.52,22.52,0,0,1,260,55.09Z" fill="#95c93d"/><path d="M198.82,100.09a.84.84,0,0,0,0,1.68h18.32a.84.84,0,1,0,0-1.68Z" fill="#95c93d"/><path d="M172.4,100.09H154.08a.84.84,0,1,0,0,1.68H172.4a.84.84,0,1,0,0-1.68Z" fill="#95c93d"/><path d="M195.69,100.93a.84.84,0,0,0-.84-.84H176.53a.84.84,0,0,0,0,1.68h18.32A.84.84,0,0,0,195.69,100.93Z" fill="#95c93d"/><path d="M316.11,100.09H304.19a.84.84,0,1,0,0,1.68h11.92a.84.84,0,1,0,0-1.68Z" fill="#95c93d"/><path d="M135.75,100.09H124.07a.84.84,0,0,0,0,1.68h11.68a.84.84,0,1,0,0-1.68Z" fill="#95c93d"/><path d="M145.74,100.09h-6.52a.84.84,0,1,0,0,1.68h6.52a.84.84,0,1,0,0-1.68Z" fill="#95c93d"/><path d="M51.88,35.78a.84.84,0,0,0,.65,1.38l16.25-1.41a.84.84,0,0,0-.14-1.67l-16.19,1.4A.87.87,0,0,0,51.88,35.78Z" fill="#95c93d"/><path d="M51.2,34.43h0L67.46,33a.83.83,0,0,0,.57-.3.84.84,0,0,0,.19-.61.86.86,0,0,0-.9-.76l-16.19,1.4a.84.84,0,0,0-.76.91A.82.82,0,0,0,51.2,34.43Z" fill="#95c93d"/><path d="M30.47,38.18h.08l16.14-2a.83.83,0,0,0,.73-.93.86.86,0,0,0-.84-.74h-.07l-16.15,2a.84.84,0,0,0,.11,1.68Z" fill="#95c93d"/><path d="M317.47,69.59a2.74,2.74,0,0,0,.69-2.07l-1.22-12.93-.05-.15,0-.09c-2.85-5.46-6-11.84-6.47-13.32.09-.22.25-.57.4-.89a5.07,5.07,0,0,0,.47-3.08c-.32-1.94-1-5-1.36-6.73a4.74,4.74,0,0,0-1.12-2.18l-1.45-1.63a3.14,3.14,0,0,0-2.31-1,3,3,0,0,0-.79.11,14.8,14.8,0,0,1-3.79.38,64.75,64.75,0,0,1-13.06-1.75c-12.9-2.83-30.59-8.86-52.56-17.92a32.05,32.05,0,0,0-6.2-1.83A270,270,0,0,0,180.82,0C164.56,0,150,1.73,137.51,5.15h-.07L83.24,28.28a4.33,4.33,0,0,1-1.59.35c-1.24,0-3.16.11-5.57.23L73.31,29C54.24,30,22,32.76,11.75,40.31a24.07,24.07,0,0,0-5.94,6.88.84.84,0,0,0-.19.34l-.07.11a.73.73,0,0,0-.15.29,22.15,22.15,0,0,0-2.6,8.4c-.54,5.44-1,11.1-1.41,15.22v.13C1.07,75,.86,77.48.77,78.14s-1.5,5-.22,7.75a3.25,3.25,0,0,0,2,1.79c2.73.88,21.79,3.84,29.86,5.08a1.64,1.64,0,0,0,.38,0A2.46,2.46,0,0,0,35.2,90L33.88,80q-.12-1.23-.12-2.46a26.76,26.76,0,0,1,53.51,0l-.35,13.12a3.21,3.21,0,0,0,3.22,3.3h0l139.2-.79a3.29,3.29,0,0,0,3.26-3.28V80.09a28.43,28.43,0,0,1,49.29-19.31c.1.1,10,10.59,4.42,23.63a1.58,1.58,0,0,0,1.44,2.2,1.39,1.39,0,0,0,.4-.06l26.14-6.82a4.5,4.5,0,0,0,2.44-1.57,3.47,3.47,0,0,0,.94-2,3.65,3.65,0,0,0-.37-1.27C316.75,73.49,315.9,71.37,317.47,69.59ZM81.7,30.31a5.91,5.91,0,0,0,2.2-.48L138,6.77c12.33-3.38,26.75-5.09,42.85-5.09A268.42,268.42,0,0,1,228.3,6.12a30,30,0,0,1,5.87,1.73c39.69,16.38,57.92,19.81,66.22,19.81a16.72,16.72,0,0,0,4.26-.45,1.39,1.39,0,0,1,1.42.43l1.45,1.63a3.07,3.07,0,0,1,.73,1.42l0,.12c.25,1.11.63,2.89,1,4.5C307,31,303.68,30,302.62,30a2.71,2.71,0,0,0-1.39.5c-4.05-.75-32.91-6.25-51.43-13.45l-1.92-.75c-18.78-7.29-28.21-11-44-11.61-3.7-.14-9.69-.33-17.1-.33-12.56,0-35.23.56-45.94,4.26-7.23,2.5-20.58,8.62-32.36,14C99.56,26.68,90.34,30.9,89.11,31l-.67.06c-1.27.12-3.18.29-5.17.29a15.17,15.17,0,0,1-5.84-.87ZM308.76,41.57c-.84,0-2-.09-3.34-.09-3.67,0-6.09.37-7.19,1.09-.32.21-.62.41-.88.6a2.22,2.22,0,0,1-1.27.4,2.13,2.13,0,0,1-1.14-.33L281.7,35c6.45-.57,16.21-1.48,17.64-1.82A9.25,9.25,0,0,0,301.93,32a4.23,4.23,0,0,1,.68-.36c.31,0,3.53.5,5.56,5.4a3.89,3.89,0,0,1,.29,1.4A15.47,15.47,0,0,0,308.76,41.57Zm-296,.11C23.07,34,59.4,31.39,74.81,30.61,76.18,32.24,78.94,33,83.24,33c2,0,3.94-.17,5.38-.3l.63-.06c1.38-.11,7.12-2.69,20-8.56,11.74-5.37,25-11.47,32.18-13.93C151.87,6.55,174.29,6,186.72,6c7.4,0,13.38.19,17.09.33,15.51.63,24.85,4.27,43.46,11.5l1.92.75c16.32,6.34,40.9,11.42,49.14,13-2.46.36-10.59,1.14-17.92,1.78a1.29,1.29,0,0,0-1.15,1,1.27,1.27,0,0,0,.58,1.4l14.21,8.88a3.84,3.84,0,0,0,2,.58,3.89,3.89,0,0,0,2.23-.71l.83-.57c.8-.52,3-.8,6.31-.8,1.81,0,3.33.08,4,.13,1.41,3.21,4.31,8.83,5.48,11.09a3.31,3.31,0,0,1-1.17.19,5.42,5.42,0,0,1-2.33-.59c-2.05-1-6.07-4.14-8.27-5.92a9.07,9.07,0,0,0-5.16-2c-6.18-.36-18.42-1-30.92-1-13.47,0-23.31.71-29.27,2.11a58.77,58.77,0,0,0,4.68-16.9,3.23,3.23,0,0,0-.74-2.41,3,3,0,0,0-2.15-1h-.26c-.28,0-29.39,1-67.26,2.91l4.93-19.34A.8.8,0,0,0,177,9.8a.82.82,0,0,0-.51-.38l-.15,0h-.06a.83.83,0,0,0-.81.63l-5.06,19.85c-15,.75-29.4,1.54-42.7,2.36C60.82,36.31,21,40.72,9.1,45.35A20.35,20.35,0,0,1,12.74,41.68ZM4.47,56.5A20.66,20.66,0,0,1,6.71,49c.85,0,2.62-.08,4-.19C8.43,53.88,6,57.4,4.3,58.22ZM90.15,92.23a1.54,1.54,0,0,1-1.55-1.58L89,77.52a28.44,28.44,0,0,0-56.87,0c0,.87,0,1.75.12,2.58v.13l1.33,10a.81.81,0,0,1-.23.67.8.8,0,0,1-.56.24h-.12c-6.27-1-26.91-4.17-29.61-5a1.57,1.57,0,0,1-1-.91c-1-2,.15-6.14.32-6.58l0-.13c.09-.59.32-3.17.64-6.75.3-3.25.67-7.42,1.07-11.69,3.37-.66,6.66-7.21,8.36-11.15a1.28,1.28,0,0,0-.15-1.28,1.26,1.26,0,0,0-1-.51h-.16c-.63.07-1.52.14-2.38.17,20.56-9.53,172.16-16.7,230.67-18.71h.14a1.3,1.3,0,0,1,.93.45,1.47,1.47,0,0,1,.34,1.14,56.88,56.88,0,0,1-5.1,17.65c-6.59,2.11-14.23,10.18-22.69,24-1.66,2.71-3.34,5.63-5,8.69C200.78,84.34,107.38,87,96.93,87.31c.1-.12.22-.26.36-.4s6.7-6.46,28.27-7.06c21.14-.58,72.28-1.33,78.13-1.42a.88.88,0,0,0,.59-.25.89.89,0,0,0,.24-.6.85.85,0,0,0-.86-.83h-.26c-2.14,0-16.87.25-33.59.53-.53-2.62-.74-7.84-.64-15.51l38.21-2.22a.82.82,0,0,0,.78-.88.85.85,0,0,0-.88-.79L169.2,60.09c.17-9.73.76-19.56.77-19.66a.86.86,0,0,0-.84-.89.85.85,0,0,0-.84.79c0,.42-.61,10.22-.78,19.85l-61.94,3.59a.81.81,0,0,0-.58.28.85.85,0,0,0-.22.61.86.86,0,0,0,.89.78l61.83-3.57c-.1,7.41.11,12.6.61,15.45-19.79.33-34.12.62-42.58.86-20,.55-27.52,5.89-29.09,7.24-1.13-17.46.1-41,.15-42a.8.8,0,0,0-.21-.61.93.93,0,0,0-.63-.28.83.83,0,0,0-.83.79c0,.27-1.44,26.41,0,44.49a.6.6,0,0,0,0,.19v.11l0,0a.67.67,0,0,0,.12.31,1.22,1.22,0,0,0,.46.47l.2.12H96c4-.11,94.84-2.53,111-6.43-2.4,4.53-4,8-4.49,9ZM234.69,50A80.78,80.78,0,0,1,223.28,66.6,96.33,96.33,0,0,1,211.37,78C217.71,66.83,226.46,53.86,234.69,50Zm81.53,18.46c-2.27,2.56-1.05,5.59-.45,7,.06.17.22.57.24.63a2.43,2.43,0,0,1-.57,1,3,3,0,0,1-1.55,1L288,84.88A22.62,22.62,0,0,0,287.78,67a26.11,26.11,0,0,0-4.65-7.35A30.1,30.1,0,0,0,231,80.09v9.75a1.62,1.62,0,0,1-1.6,1.6l-25,.14c.8-1.7,2.6-5.4,5-9.93a95.42,95.42,0,0,0,15.18-13.92A81.22,81.22,0,0,0,237,49.18c5.61-1.59,15.74-2.4,30.11-2.4,12.47,0,24.69.62,30.87,1a7.36,7.36,0,0,1,4.2,1.62,62.11,62.11,0,0,0,8.59,6.12,7,7,0,0,0,3.06.76,5.23,5.23,0,0,0,1.58-.23l1.11,11.65A1.06,1.06,0,0,1,316.22,68.48Z" fill="#95c93d"/><line x1="76.08" y1="28.86" x2="73.31" y2="28.99" fill="none"/></svg>