<svg xmlns="http://www.w3.org/2000/svg" viewBox="0 0 321.87 97.77"><title>Asset 5</title><path d="M263.09,91.62A16.88,16.88,0,0,0,273,88.43h0l.12-.08,0,0a17,17,0,0,0,6.13-19l0-.07a17,17,0,0,0-32.37,0l0,.1h0a16.79,16.79,0,0,0-.82,5.21A17.13,17.13,0,0,0,253,88.31h0l.06.05.07,0h0A16.87,16.87,0,0,0,263.09,91.62Zm-2.36-15-7.37,10.14a15.55,15.55,0,0,1-5.3-16.3L260,74.33a2.26,2.26,0,0,0,0,.26A3.1,3.1,0,0,0,260.73,76.62Zm-12.22-7.53A15.67,15.67,0,0,1,262.37,59V71.56a3.1,3.1,0,0,0-1.93,1.4Zm12.9,5.5a1.69,1.69,0,1,1,1.68,1.68A1.68,1.68,0,0,1,261.41,74.59Zm16.27-5.5L265.75,73a3.1,3.1,0,0,0-1.93-1.4V59A15.67,15.67,0,0,1,277.68,69.09Zm.45,1.37a15.55,15.55,0,0,1-5.3,16.3l-7.37-10.14a3.1,3.1,0,0,0,.76-2,2.35,2.35,0,0,0,0-.26Zm-6.47,17.15a15.56,15.56,0,0,1-17.13,0l7.37-10.15a3,3,0,0,0,2.39,0Z" fill="#95c93d"/><path d="M88.74,74.59a17,17,0,0,0-.81-5.2l0-.12h0a17,17,0,0,0-32.35,0l0,0v.09a16.79,16.79,0,0,0-.82,5.21,17.13,17.13,0,0,0,6.95,13.72h0l.06.05.07,0h0a17,17,0,0,0,19.83,0h0l.12-.08,0,0A17.11,17.11,0,0,0,88.74,74.59Zm-8.47,13a15.56,15.56,0,0,1-17.13,0l7.37-10.15a3,3,0,0,0,2.39,0Zm-10.93-11L62,86.76a15.55,15.55,0,0,1-5.3-16.3l11.92,3.87c0,.09,0,.17,0,.26A3.1,3.1,0,0,0,69.34,76.62ZM57.12,69.09A15.67,15.67,0,0,1,71,59V71.56A3.09,3.09,0,0,0,69.05,73ZM70,74.59a1.69,1.69,0,1,1,1.69,1.68A1.69,1.69,0,0,1,70,74.59Zm16.27-5.5L74.36,73a3.1,3.1,0,0,0-1.93-1.4V59A15.66,15.66,0,0,1,86.29,69.09Zm.45,1.37a15.55,15.55,0,0,1-5.3,16.3L74.07,76.62a3.1,3.1,0,0,0,.76-2,2.26,2.26,0,0,0,0-.26Z" fill="#95c93d"/><path d="M28.25,24.53H0V26H25.83l-1,1.08a4.39,4.39,0,0,0-1,1.78H17.81a.72.72,0,0,0,0,1.44h5.75c-.21,1-.46,2.13-.68,3.23H12.21a.72.72,0,1,0,0,1.44h10.4c0,.23-.08.45-.11.65a4.81,4.81,0,0,0,.44,2.91c.16.32.31.67.4.89s-.12.35-.24.62H11.53a.73.73,0,1,0,0,1.45h11c-1.23,2.68-3.48,7.15-5.3,10.63H1.49v1.44H16.92l-1,11H7.48a.73.73,0,0,0,0,1.45H16a2.69,2.69,0,0,0,.5.85c1.55,1.75.71,3.83.16,5.2a3.54,3.54,0,0,0-.35,1.19,3.18,3.18,0,0,0,.88,1.85,4.39,4.39,0,0,0,2.31,1.5l25.16,6.56a1.49,1.49,0,0,0,.36.05,1.43,1.43,0,0,0,1.31-2c-5.4-12.63,4.17-22.74,4.27-22.84A27.44,27.44,0,0,1,98.17,77v9.38a3.07,3.07,0,0,0,3,3.07l134,.77h0a3,3,0,0,0,3-3.1l-.33-12.62a25.84,25.84,0,0,1,51.67,0,23.76,23.76,0,0,1-.12,2.39l-1.27,9.64a2.29,2.29,0,0,0,2.27,2.59l.35,0c7.76-1.2,26.11-4.06,28.73-4.9a3,3,0,0,0,1.83-1.67c1.14-2.4.12-6.45-.22-7.41-.08-.64-.29-3-.58-6.23v-.11c-.36-4-.85-9.45-1.36-14.65a21.52,21.52,0,0,0-2.49-8.08.58.58,0,0,0-.13-.23l-.1-.19a.59.59,0,0,0-.14-.23,22.91,22.91,0,0,0-5.72-6.63c-12.2-9-58.14-10.93-67.22-11.22a4.48,4.48,0,0,1-1.57-.35L189.66,5h0C178.31,1.86,165.19.2,150.62,0l-.14,0H52.42a.72.72,0,1,0,0,1.44h69.25c-8.9,1-15.89,2.14-19.71,2.86A29.64,29.64,0,0,0,96,6.06c-4.48,1.84-8.88,3.6-13.1,5.22H40.29a.73.73,0,1,0,0,1.45H79.14C65.65,17.8,54.31,21.36,45.4,23.3A61.43,61.43,0,0,1,32.83,25a14.29,14.29,0,0,1-3.67-.38l-.08,0v-.06h-.83Zm0,41.59a.18.18,0,0,1,.15.07.24.24,0,0,1,.05.18,5.46,5.46,0,0,1-1.5,2.72,17.93,17.93,0,0,1-5.19-1.61.34.34,0,0,1,0-.25,2.36,2.36,0,0,1,.44-1.18A13,13,0,0,1,23.82,66C24.94,66,26.42,66,28.21,66.12ZM17.33,64.53l1-10.81A4.93,4.93,0,0,0,20,54a6.73,6.73,0,0,0,2.91-.73,59.67,59.67,0,0,0,8.25-5.88,7.26,7.26,0,0,1,4.1-1.58c5.94-.35,17.71-.94,29.71-.94,13.87,0,23.64.78,29.05,2.33a78.09,78.09,0,0,0,12,17.86,91.47,91.47,0,0,0,14.61,13.39c2.44,4.51,4.19,8.15,4.93,9.71L101.23,88a1.63,1.63,0,0,1-1.62-1.63V77A28.88,28.88,0,0,0,49.54,57.36a24.86,24.86,0,0,0-4.47,7A21.75,21.75,0,0,0,45,81.76L19.85,75.17a2.93,2.93,0,0,1-1.54-1c-.55-.7-.57-1-.57-1s.16-.43.25-.65c.59-1.47,1.69-4.19-.33-6.59h2.85a3.24,3.24,0,0,0-.29,1.21,1.82,1.82,0,0,0,.32,1.11.75.75,0,0,0-.48-.18.71.71,0,0,0-.7.53.71.71,0,0,0,.08.55c.64,1.1,2,2,4.08,2.59a8.7,8.7,0,0,0,2.53.39,5.83,5.83,0,0,0,3.42-1c.59-.46,1.89-3.35,2.87-5.68l0-.11a1.58,1.58,0,0,0-.37-1.3c-.77-.93-2.44-1.38-5.13-1.38h-.27C21.15,62.81,20,63,20,63a.72.72,0,0,0,.1,1.44h.1s1.22-.15,6.46-.2h.24c3.09,0,3.87.66,4,.86a.33.33,0,0,1,.06.08,36.64,36.64,0,0,1-2.38,5,4.51,4.51,0,0,1-2.52.64,7.3,7.3,0,0,1-2.12-.33c-1.16-.35-2.66-1-3.23-1.92,0,0,0,0,0,0,.8.77,4.86,2,6.21,2a1.45,1.45,0,0,0,.32,0c1.11-.24,2.31-2.47,2.57-3.85a1.62,1.62,0,0,0-.32-1.34,1.67,1.67,0,0,0-1.21-.63c-1.83-.09-3.32-.14-4.4-.14H17.33Zm219.11,10,.34,12.64a1.57,1.57,0,0,1-1.57,1.62l-108.13-.62c-.49-1-2.08-4.43-4.44-8.89,14.92,3.78,103.14,6.14,107,6.24h.2l.18-.1a1,1,0,0,0,.41-.43.55.55,0,0,0,.11-.29l0-.09a1,1,0,0,0,0-.17c1.37-17.24,0-42.58,0-42.83a.73.73,0,0,0-1.45.08c0,.24,1.27,23.56.14,40.63-1.17-1.06-8.17-6.51-28.07-7.06-8.21-.23-22-.51-41.08-.83.49-2.72.7-7.78.61-15l59.59,3.45a.73.73,0,0,0,.76-.68.71.71,0,0,0-.18-.52.74.74,0,0,0-.5-.24l-59.7-3.45c-.16-9.12-.69-18.17-.75-19.19a.72.72,0,0,0-.72-.68.74.74,0,0,0-.72.77c0,.41.58,9.82.74,19L122.47,55.7a.73.73,0,0,0-.09,1.45l36.85,2.13c.1,7.5-.1,12.58-.61,15.1-17.57-.3-32.58-.51-32.67-.51a.72.72,0,0,0,0,1.44c.5,0,53.66.77,75.19,1.37,20.82.57,27.21,6.75,27.27,6.81a6.16,6.16,0,0,1,.47.54c-9.12-.25-100.28-2.84-107.2-6.6-1.6-3-3.23-5.78-4.83-8.39C108.68,55.75,101.33,48,95,46a55.11,55.11,0,0,1-4.94-17,1.57,1.57,0,0,1,.36-1.16,1.32,1.32,0,0,1,1-.47h.15c2,.07,200.75,7.05,222.41,18.21-.94,0-2-.1-2.72-.19h-.14a1.15,1.15,0,0,0-1.05,1.6c1.64,3.81,4.82,10.15,8.05,10.71.38,4.05.74,8,1,11.15v.14c.31,3.45.53,5.94.61,6.5l0,.12c.16.41,1.24,4.41.31,6.4a1.59,1.59,0,0,1-1,.91c-2.59.83-22.47,3.91-28.5,4.84h-.13a.87.87,0,0,1-.59-.24.81.81,0,0,1-.25-.72l1.27-9.62,0-.06,0,0c.08-.8.12-1.64.12-2.49a27.28,27.28,0,0,0-54.56,0ZM25.3,35.53c2-4.83,5.21-5.23,5.43-5.25a3.75,3.75,0,0,1,.7.37,8.72,8.72,0,0,0,2.46,1.08c1.43.35,11.93,1.31,17.23,1.78l-13,8.09a2.1,2.1,0,0,1-1.14.33,2.2,2.2,0,0,1-1.27-.4L34.89,41c-1-.68-3.35-1-6.86-1-1.29,0-2.48,0-3.33.09a15.93,15.93,0,0,0,.32-3.1A3.62,3.62,0,0,1,25.3,35.53ZM309.75,40a20.63,20.63,0,0,1,3.73,3.8C302.44,39.26,264,35,199.08,31c-12.79-.78-26.64-1.55-41.16-2.28L153,9.58a.72.72,0,0,0-.7-.54.55.55,0,0,0-.18,0,.74.74,0,0,0-.44.33.71.71,0,0,0-.08.55l4.77,18.73c-35.71-1.79-63.66-2.77-64.84-2.81h-.26a2.74,2.74,0,0,0-2,1,3,3,0,0,0-.69,2.26,55.8,55.8,0,0,0,4.56,16.39C87.48,44.11,78,43.41,64.87,43.41c-12,0-23.8.59-29.75.94a8.53,8.53,0,0,0-4.91,1.9,60.33,60.33,0,0,1-8,5.7,5.26,5.26,0,0,1-2.28.59,3.35,3.35,0,0,1-1.25-.23c1.1-2.11,4-7.69,5.34-10.81.65,0,2.16-.13,3.94-.13,3.17,0,5.34.28,6.12.79l.81.55a3.66,3.66,0,0,0,2.1.66,3.7,3.7,0,0,0,1.91-.54L52.6,34.28A1.14,1.14,0,0,0,53.11,33a1.16,1.16,0,0,0-1-.89c-3.73-.32-15.81-1.4-17.73-1.78C41.77,28.92,66.09,24,82.11,17.72L84,17c17.92-7,26.91-10.46,41.85-11.07,3.57-.14,9.33-.32,16.45-.32,12,0,33.56.52,43.67,4,6.88,2.38,19.69,8.24,31,13.42s17.76,8.11,19.14,8.22l.64.06c1.36.12,3.21.29,5.15.29,4.15,0,6.8-.77,8.08-2.34C264.75,30,299.78,32.56,309.75,40ZM118.83,75.33A93.72,93.72,0,0,1,107,64.07,77.94,77.94,0,0,1,95.9,47.87C104,51.49,112.65,64.38,118.83,75.33ZM315.56,47a20,20,0,0,1,2.18,7.28l.18,1.8c-1.72-.7-4.13-4.2-6.37-9.27C312.87,46.93,314.73,47,315.56,47ZM24.36,33.51c.22-1.13.47-2.29.67-3.23h2.34a10.52,10.52,0,0,0-2.69,3.23Zm1.05-4.67a3.21,3.21,0,0,1,.52-.81l1.41-1.57a1.43,1.43,0,0,1,1-.48h.07a1.18,1.18,0,0,1,.34,0,16.38,16.38,0,0,0,4.08.43c8,0,25.51-3.31,63.71-19.06a29.52,29.52,0,0,1,5.66-1.68,259.53,259.53,0,0,1,45.71-4.27c15.5,0,29.39,1.65,41.27,4.9l52,22.2a5.72,5.72,0,0,0,2.08.46c.75,0,2.31.08,4.46.18a13.64,13.64,0,0,1-6,1c-1.91,0-3.76-.17-5-.28l-.65-.06c-1.19-.1-10.07-4.16-18.66-8.09-11.34-5.2-24.19-11.08-31.13-13.48-10.3-3.56-32.11-4.09-44.2-4.09-7.12,0-12.87.17-16.45.32-15.18.62-24.25,4.14-42.32,11.17l-1.84.71c-18,7-47,12.49-49.55,13a2.59,2.59,0,0,0-1.31-.49Z" fill="#95c93d"/><path d="M278.53,43c0,.54,0,.56,2.07,1.72.73.4,1.75,1,3.16,1.78A102.09,102.09,0,0,0,297.2,52.4a3.21,3.21,0,0,0,1.07.19h.15l1.61,0a33.68,33.68,0,0,1,10.65,1.65,1.12,1.12,0,0,0,.4.07,1.24,1.24,0,0,0,1.09-1.82,47.09,47.09,0,0,0-5.71-7.25,3,3,0,0,0-1.63-.92c-1.49-.31-5.54-1.19-11-2.63a23.8,23.8,0,0,0-6-.74,27.39,27.39,0,0,0-8.74,1.42A.8.8,0,0,0,278.53,43Zm19.16,8a99.94,99.94,0,0,1-13.21-5.78l-3-1.69-.53-.3a26.91,26.91,0,0,1,6.92-.92,22.11,22.11,0,0,1,5.61.7c5.48,1.45,9.57,2.33,11.07,2.64a1.62,1.62,0,0,1,.86.49,50,50,0,0,1,5.23,6.49A35.37,35.37,0,0,0,300,51.1c-.54,0-1.1,0-1.68,0h-.08A1.65,1.65,0,0,1,297.69,51Z" fill="#95c93d"/><path d="M300,72.65a1.4,1.4,0,0,0-.31,1.3,8.36,8.36,0,0,0,1.36,2.83c1.57,4.22,11.65,4.68,15.92,4.68h1a.74.74,0,0,0,.71-.75A.73.73,0,0,0,318,80h-.86a57,57,0,0,1-5.71-.28c1.3-.17,2.19-.39,2.2-.39a.89.89,0,0,0,.58-.49c.09-.21.37-.83-.92-3.47-.33-.73-2-1.75-12-3.19l-.21,0A1.42,1.42,0,0,0,300,72.65Zm1.09,1c7.31,1.06,10.56,2,10.9,2.41a13.29,13.29,0,0,1,.8,2,22.23,22.23,0,0,1-4.23.44,9.38,9.38,0,0,1-4.39-.87A6.35,6.35,0,0,1,301.12,73.62Z" fill="#95c93d"/><path d="M175.26,42h0l-7.78-.29a.74.74,0,0,1-.51-.23.7.7,0,0,1-.19-.52.72.72,0,0,1,.75-.69l7.78.29a.72.72,0,0,1,.69.74A.72.72,0,0,1,175.26,42Z" fill="#95c93d"/><path d="M118.94,39.64h0l-7.78-.29a.72.72,0,0,1-.7-.74.73.73,0,0,1,.75-.7l7.78.29a.72.72,0,0,1,0,1.44Z" fill="#95c93d"/><path d="M206.56,97.05a.72.72,0,0,0,.72.72h78.88a.72.72,0,1,0,0-1.44h-15a23.19,23.19,0,1,0-16.13,0H207.28A.72.72,0,0,0,206.56,97.05Zm56.53-.72a21.74,21.74,0,1,1,21.75-21.74A21.77,21.77,0,0,1,263.09,96.33Z" fill="#95c93d"/><path d="M289.67,96.33h17.64a.72.72,0,1,1,0,1.44H289.67a.72.72,0,1,1,0-1.44Z" fill="#95c93d"/><path d="M35.63,97.05a.72.72,0,0,0,.72.72h73.12a.72.72,0,1,0,0-1.44H79.77a23.19,23.19,0,1,0-16.13,0H36.35A.72.72,0,0,0,35.63,97.05ZM93.45,74.59A21.75,21.75,0,1,1,71.71,52.85,21.77,21.77,0,0,1,93.45,74.59Z" fill="#95c93d"/><path d="M113,96.33h17.64a.72.72,0,0,1,0,1.44H113a.72.72,0,0,1,0-1.44Z" fill="#95c93d"/><path d="M156,96.33h17.64a.72.72,0,0,1,0,1.44H156a.72.72,0,0,1,0-1.44Z" fill="#95c93d"/><path d="M134.43,96.33h17.64a.72.72,0,0,1,0,1.44H134.43a.72.72,0,0,1,0-1.44Z" fill="#95c93d"/><path d="M17.74,96.33H29.2a.72.72,0,1,1,0,1.44H17.74a.72.72,0,1,1,0-1.44Z" fill="#95c93d"/><path d="M191.31,96.33h11.25a.72.72,0,0,1,0,1.44H191.31a.72.72,0,0,1,0-1.44Z" fill="#95c93d"/><path d="M181.7,96.33H188a.72.72,0,0,1,0,1.44H181.7a.72.72,0,0,1,0-1.44Z" fill="#95c93d"/></svg>