<svg xmlns="http://www.w3.org/2000/svg" viewBox="0 0 95.7 95.68"><title>Asset 7</title><path d="M47.85,95.68a47.66,47.66,0,0,1-40.23-22,45,45,0,0,1-4.35-8.55A47,47,0,0,1,0,47.83a47.85,47.85,0,0,1,95.7,0,46.84,46.84,0,0,1-3.28,17.35,44.38,44.38,0,0,1-4.35,8.55A47.64,47.64,0,0,1,47.85,95.68Zm0-93.48A45.69,45.69,0,0,0,2.2,47.83,44.8,44.8,0,0,0,5.32,64.37a42.89,42.89,0,0,0,4.15,8.16,45.63,45.63,0,0,0,76.75,0,42.53,42.53,0,0,0,4.15-8.15,44.89,44.89,0,0,0,3.12-16.55A45.68,45.68,0,0,0,47.85,2.2Z" fill="#95c93d"/><path d="M47.85,89.15a41.12,41.12,0,0,1-34.74-19A38.64,38.64,0,0,1,9.35,62.8a40.56,40.56,0,0,1-2.83-15,41.33,41.33,0,0,1,82.65,0,40.73,40.73,0,0,1-2.82,15,39.45,39.45,0,0,1-3.76,7.38A41.15,41.15,0,0,1,47.85,89.15Zm0-80.42A39.15,39.15,0,0,0,8.73,47.83,38.49,38.49,0,0,0,11.4,62,37.1,37.1,0,0,0,15,69a39.1,39.1,0,0,0,65.77,0,36.73,36.73,0,0,0,3.56-7A38.39,38.39,0,0,0,87,47.83,39.15,39.15,0,0,0,47.85,8.73Z" fill="#95c93d"/><path d="M47.85,89.15a41.24,41.24,0,0,1-19.73-5l-1.21-.66.9-1a26.57,26.57,0,0,1,40.06,0l.91,1-1.21.66A41.33,41.33,0,0,1,47.85,89.15Zm-17.42-6.3a39.73,39.73,0,0,0,34.83,0,24.36,24.36,0,0,0-34.83,0Z" fill="#95c93d"/><path d="M47.85,60.33a6.8,6.8,0,1,1,6.79-6.8A6.81,6.81,0,0,1,47.85,60.33Zm0-11.39a4.59,4.59,0,1,0,4.59,4.59A4.6,4.6,0,0,0,47.85,48.94Z" fill="#95c93d"/><path d="M87.65,59.23,86.22,57A45.62,45.62,0,0,0,9.48,57L8.05,59.23l-.57-2.57a40.22,40.22,0,0,1-1-8.83,41.33,41.33,0,1,1,82.65,0,40.84,40.84,0,0,1-1,8.83ZM47.85,33.88A47.65,47.65,0,0,1,86.55,53.6,39.12,39.12,0,1,0,8.73,47.83a39.39,39.39,0,0,0,.42,5.77A47.64,47.64,0,0,1,47.85,33.88Z" fill="#95c93d"/></svg>