<svg xmlns="http://www.w3.org/2000/svg" viewBox="0 0 118.96 31.91"><title>Asset 6</title><path d="M103.67,10V21.92a10,10,0,0,1-10,10H80.18V0h13.5A10,10,0,0,1,103.67,10Zm-22,20.43h12a8.51,8.51,0,0,0,8.5-8.5V10a8.51,8.51,0,0,0-8.5-8.5h-12Z" fill="#95c93d"/><path d="M119,13.94v4a3.21,3.21,0,0,1-3.21,3.21H113.4a1.72,1.72,0,0,0-1.71,1.72,3.21,3.21,0,0,1-3.21,3.21h-4.2V5.8h4.2A3.21,3.21,0,0,1,111.69,9a1.72,1.72,0,0,0,1.71,1.72h2.35A3.21,3.21,0,0,1,119,13.94ZM105.77,24.61h2.71a1.73,1.73,0,0,0,1.72-1.72,3.21,3.21,0,0,1,3.2-3.21h2.35A1.72,1.72,0,0,0,117.47,18v-4a1.73,1.73,0,0,0-1.72-1.72H113.4A3.21,3.21,0,0,1,110.2,9a1.72,1.72,0,0,0-1.72-1.71h-2.71Z" fill="#95c93d"/><path d="M78.73,0V31.91H76.4A3.45,3.45,0,0,1,73,28.81h-.16v.93H70.48a3.46,3.46,0,0,1-3.36-2.65v1.06H64.79a3.45,3.45,0,0,1-3.45-3.44v-1.5h-2V8.69h2V7.2a3.46,3.46,0,0,1,3.45-3.45h2.33V4.82a3.46,3.46,0,0,1,3.36-2.65h2.33V3.1H73A3.45,3.45,0,0,1,76.4,0ZM77.24,30.42V1.49H76.4a2,2,0,0,0-2,2V4.59H71.32V3.66h-.84a2,2,0,0,0-2,2v.74H65.63V5.24h-.84a2,2,0,0,0-2,2v3h-2V21.72h2v3a2,2,0,0,0,2,1.95h.84V25.54h2.89v.75a2,2,0,0,0,2,2h.84v-.93h3.12v1.14a2,2,0,0,0,2,2Z" fill="#95c93d"/><path d="M58.2,10.73V21.17H13.54a1.82,1.82,0,0,1-1.83-1.82.33.33,0,0,0-.33-.33H1.82A1.83,1.83,0,0,1,0,17.19V14.71a1.83,1.83,0,0,1,1.82-1.82h9.56a.33.33,0,0,0,.33-.33,1.83,1.83,0,0,1,1.83-1.83Zm-1.49,9V12.22H13.54a.33.33,0,0,0-.33.34,1.83,1.83,0,0,1-1.83,1.82H1.82a.33.33,0,0,0-.33.33v2.48a.34.34,0,0,0,.33.34h9.56a1.82,1.82,0,0,1,1.83,1.82.33.33,0,0,0,.33.33Z" fill="#95c93d"/></svg>